<?xml version="1.0" encoding="utf-8"?>
<!-- Generator: Adobe Illustrator 17.1.0, SVG Export Plug-In . SVG Version: 6.00 Build 0)  -->
<!DOCTYPE svg PUBLIC "-//W3C//DTD SVG 1.1//EN" "http://www.w3.org/Graphics/SVG/1.1/DTD/svg11.dtd">
<svg version="1.1" id="Capa_1" xmlns="http://www.w3.org/2000/svg" xmlns:xlink="http://www.w3.org/1999/xlink" x="0px" y="0px"
	 viewBox="0 0 99 99" enable-background="new 0 0 99 99" xml:space="preserve">
<g transform="translate(52 53)">
	<path fill="#1A35AC" d="M44.5-3.6c0-0.7,0-1.3,0-2v-38L33.9-33.1C25.3-43.6,12.2-50.3-2.4-50.3c-15.3,0-28.8,7.3-37.4,18.6
		l17.2,17.4c1.7-3.1,4.1-5.8,7-7.8c3-2.3,7.3-4.3,13.2-4.3c0.7,0,1.3,0.1,1.7,0.2c7.3,0.6,13.6,4.6,17.4,10.5L4.4-3.6
		C19.9-3.6,37.3-3.7,44.5-3.6"/>
	<path fill="#3F86F4" d="M-2.7-50.3c-0.7,0-1.3,0-2,0h-38l10.5,10.5c-10.5,8.6-17.3,21.7-17.3,36.3c0,15.3,7.3,28.8,18.6,37.4
		l17.4-17.2c-3.1-1.7-5.8-4.1-7.8-7c-2.3-3-4.3-7.3-4.3-13.2c0-0.7,0.1-1.3,0.2-1.7c0.6-7.3,4.6-13.6,10.5-17.4l12.2,12.2
		C-2.8-25.7-2.8-43.1-2.7-50.3"/>
	<path fill="#B3B3B3" d="M-49.5-3.4c0,0.7,0,1.3,0,2v38l10.5-10.5c8.6,10.5,21.7,17.3,36.3,17.3c15.3,0,28.8-7.3,37.4-18.6L17.6,7.4
		c-1.7,3.1-4.1,5.8-7,7.8c-3,2.3-7.3,4.3-13.2,4.3c-0.7,0-1.3-0.1-1.7-0.2c-7.3-0.6-13.6-4.6-17.4-10.5L-9.4-3.4
		C-24.8-3.4-42.3-3.3-49.5-3.4"/>
</g>
</svg>
